<svg xmlns="http://www.w3.org/2000/svg" width="53.208" height="50.058" viewBox="0 0 53.208 50.058">
  <g id="home" transform="translate(0.25 0.307)">
    <g id="Group_849" data-name="Group 849" transform="translate(2.144 27.619)">
      <g id="_Grupo_" data-name="&lt;Grupo&gt;" transform="translate(18.153 5.473)">
        <g id="Group_841" data-name="Group 841" transform="translate(0 13.272)">
          <path id="Path_480" data-name="Path 480" d="M290.475,462.559a.775.775,0,0,1-.342-.081l-2.725-1.363a7.968,7.968,0,0,1-6.361,0l-2.725,1.363a.766.766,0,0,1-.685-1.37l3.124-1.562a.767.767,0,0,1,.884.143h0a4.347,4.347,0,0,0,2.583.557,4.238,4.238,0,0,0,2.6-.575.8.8,0,0,1,.865-.125l3.123,1.562a.766.766,0,0,1-.343,1.451Z" transform="translate(-277.212 -459.465)" fill="#c7c7c7" stroke="#c7c7c8" stroke-width="0.5"/>
        </g>
        <g id="Group_842" data-name="Group 842" transform="translate(1.582)">
          <path id="Path_481" data-name="Path 481" d="M286.714,456.676a.766.766,0,0,1-.426-1.4c1.6-1.066,1.657-1.641,1.814-3.179.025-.239.051-.494.084-.77a5.132,5.132,0,0,0-.285-2.961,3.448,3.448,0,0,0-2.005-1.592,4.919,4.919,0,0,0-3.053,0,3.451,3.451,0,0,0-2,1.592,5.141,5.141,0,0,0-.285,2.962c.034.274.06.529.084.769.157,1.538.216,2.113,1.814,3.179a.766.766,0,0,1-.85,1.275,4.734,4.734,0,0,1-2.488-4.3c-.024-.229-.049-.474-.081-.737a6.466,6.466,0,0,1,.45-3.862,4.969,4.969,0,0,1,2.869-2.331,6.473,6.473,0,0,1,4.032,0,4.966,4.966,0,0,1,2.871,2.332,6.467,6.467,0,0,1,.45,3.86c-.032.264-.056.509-.081.738a4.73,4.73,0,0,1-2.488,4.3A.76.76,0,0,1,286.714,456.676Z" transform="translate(-278.937 -444.996)" fill="#c7c7c7" stroke="#c7c7c8" stroke-width="0.5"/>
        </g>
      </g>
      <g id="Group_846" data-name="Group 846" transform="translate(33.072 0)">
        <g id="Group_843" data-name="Group 843" transform="translate(1.484 15.556)">
          <path id="Path_482" data-name="Path 482" d="M295.86,461.2a.766.766,0,0,1-.241-1.493,4.811,4.811,0,0,0,1.247-.543,7.861,7.861,0,0,0-.146-2.269.766.766,0,0,1,1.507-.275c.345,1.884.269,3.089-.227,3.584a4.979,4.979,0,0,1-1.9.957A.765.765,0,0,1,295.86,461.2Zm.989-1.988Z" transform="translate(-295.094 -455.988)" fill="#c7c7c7" stroke="#c7c7c8" stroke-width="0.5"/>
        </g>
        <g id="Group_844" data-name="Group 844" transform="translate(9.337 15.54)">
          <path id="Path_483" data-name="Path 483" d="M310.629,462.27a.7.7,0,0,1-.138-.013c-1.247-.226-5.392-1.045-6.405-2.058-.5-.5-.564-1.71-.2-3.607a.766.766,0,0,1,1.505.286,7.921,7.921,0,0,0-.163,2.286c.6.467,3.289,1.176,5.54,1.586a.766.766,0,0,1-.136,1.52Zm-5.39-3.06Z" transform="translate(-303.655 -455.97)" fill="#c7c7c7" stroke="#c7c7c8" stroke-width="0.5"/>
        </g>
        <g id="Group_845" data-name="Group 845">
          <path id="Path_484" data-name="Path 484" d="M302.4,456.714a.766.766,0,0,1-.125-1.522c2.222-.37,3.063-3.99,3.071-4.026.252-1.075.533-2.833.659-3.917a9.583,9.583,0,0,0,0-2.711c-.311-2.3-2.6-3.977-5.452-3.977s-5.141,1.673-5.451,3.977a9.582,9.582,0,0,0,0,2.711c.126,1.089.405,2.848.657,3.908.01.045.851,3.665,3.073,4.035a.766.766,0,0,1-.251,1.512c-3.243-.54-4.273-5.015-4.315-5.2-.261-1.1-.554-2.941-.685-4.074a11.047,11.047,0,0,1,0-3.091c.414-3.074,3.344-5.306,6.97-5.306s6.557,2.232,6.97,5.3a11.037,11.037,0,0,1,0,3.091c-.13,1.129-.424,2.965-.687,4.085-.04.18-1.07,4.654-4.313,5.195A.732.732,0,0,1,302.4,456.714Z" transform="translate(-293.476 -439.029)" fill="#c7c7c7" stroke="#c7c7c8" stroke-width="0.5"/>
        </g>
      </g>
      <g id="Group_848" data-name="Group 848" transform="translate(0 0)">
        <path id="Path_485" data-name="Path 485" d="M263.192,458.034l-.085-.275a2.527,2.527,0,0,1-.281,1.533c-.48.56-2.848,1.261-4.766,1.591a.766.766,0,0,0,.128,1.521.8.8,0,0,0,.13-.012c.756-.128,4.586-.838,5.67-2.1a4.044,4.044,0,0,0,.649-2.712Z" transform="translate(-257.423 -440.563)" fill="#c7c7c7" stroke="#c7c7c8" stroke-width="0.5"/>
        <path id="Path_486" data-name="Path 486" d="M273.067,459.907a3.192,3.192,0,0,1-1.257-.616c-.181-.262-.316-.641-.283-1.8,0-.008,0-.015,0-.023l-1.533.482a3.614,3.614,0,0,0,.651,2.333,4.38,4.38,0,0,0,1.931,1.076.774.774,0,0,0,.247.041.766.766,0,0,0,.248-1.491Z" transform="translate(-258.462 -440.554)" fill="#c7c7c7" stroke="#c7c7c8" stroke-width="0.5"/>
        <g id="Group_847" data-name="Group 847" transform="translate(1.253)">
          <path id="Path_487" data-name="Path 487" d="M269.737,457.172a.766.766,0,0,1-.094-1.526,8.839,8.839,0,0,0,3.851-1.292,42.944,42.944,0,0,1-.938-8.178,5.616,5.616,0,1,0-11.232,0,43.028,43.028,0,0,1-.938,8.178,8.838,8.838,0,0,0,3.851,1.292.766.766,0,1,1-.19,1.52c-.67-.084-4.065-.582-5.129-2.177a.766.766,0,0,1-.109-.6,42.667,42.667,0,0,0,.982-8.214,7.148,7.148,0,0,1,14.3,0,42.617,42.617,0,0,0,.983,8.214.77.77,0,0,1-.109.6c-1.064,1.594-4.459,2.092-5.129,2.177A.852.852,0,0,1,269.737,457.172Z" transform="translate(-258.788 -439.029)" fill="#c7c7c7" stroke="#c7c7c8" stroke-width="0.5"/>
        </g>
      </g>
    </g>
    <g id="eco-energy_efficiency_" data-name="eco-energy efficiency
">
      <g id="Group_850" data-name="Group 850">
        <path id="Path_488" data-name="Path 488" d="M303.725,436.862a.765.765,0,0,1-.766-.766,2.419,2.419,0,0,1,2.416-2.417.886.886,0,0,0,.885-.885v-3.312a.892.892,0,0,0-.347-.7l-23.566-18.071a1.78,1.78,0,0,0-1.857.029l-23.528,18.043a.891.891,0,0,0-.346.7v3.312a.886.886,0,0,0,.884.885,2.419,2.419,0,0,1,2.417,2.417.766.766,0,0,1-1.532,0,.886.886,0,0,0-.885-.885,2.419,2.419,0,0,1-2.417-2.417v-3.312a2.436,2.436,0,0,1,.946-1.918L279.6,409.491a3.254,3.254,0,0,1,3.642-.029l23.607,18.1a2.433,2.433,0,0,1,.946,1.918v3.312a2.419,2.419,0,0,1-2.417,2.417.886.886,0,0,0-.884.885A.766.766,0,0,1,303.725,436.862Z" transform="translate(-255.085 -408.92)" fill="#c7c7c7" stroke="#c7c7c8" stroke-width="0.5"/>
      </g>
      <g id="Group_851" data-name="Group 851" transform="translate(37.968 0.822)">
        <path id="Path_489" data-name="Path 489" d="M307.149,421.253a.765.765,0,0,1-.766-.766v-8.254a.886.886,0,0,0-.885-.885h-6.6a.886.886,0,0,0-.884.885v1.65a.766.766,0,1,1-1.533,0v-1.65a2.419,2.419,0,0,1,2.417-2.417h6.6a2.419,2.419,0,0,1,2.417,2.417v8.254A.765.765,0,0,1,307.149,421.253Z" transform="translate(-296.477 -409.816)" fill="#c7c7c7" stroke="#c7c7c8" stroke-width="0.5"/>
      </g>
    </g>
  </g>
</svg>
