<svg xmlns="http://www.w3.org/2000/svg" width="39.512" height="48.096" viewBox="0 0 39.512 48.096">
  <g id="location" transform="translate(0.378 0.25)">
    <g id="Group_855" data-name="Group 855">
      <g id="Group_854" data-name="Group 854">
        <g id="Group_853" data-name="Group 853">
          <path id="Path_490" data-name="Path 490" d="M705.164,461.862a2.273,2.273,0,0,1-1.732-.8l-13.594-15.968a15.33,15.33,0,0,1-2.828-4.676,19.341,19.341,0,0,1,2.252-17.822,19.343,19.343,0,0,1,31.8,0h0a19.35,19.35,0,0,1,2.245,17.836,15.379,15.379,0,0,1-2.828,4.668l-13.589,15.961A2.272,2.272,0,0,1,705.164,461.862Zm0-46.286a17.779,17.779,0,0,0-14.824,7.765,18.03,18.03,0,0,0-2.1,16.617,14.089,14.089,0,0,0,2.6,4.283l13.6,15.971a.994.994,0,0,0,1.467,0l13.59-15.963a14.079,14.079,0,0,0,2.6-4.277,18.041,18.041,0,0,0-2.1-16.631h0A17.777,17.777,0,0,0,705.164,415.576Zm12.362,27.651a.663.663,0,0,1-.292-.069.655.655,0,0,1-.293-.879.7.7,0,0,1,.1-.149,10.9,10.9,0,0,0,2.013-3.292,14.817,14.817,0,0,0-1.729-13.657.655.655,0,1,1,1.078-.746,16.125,16.125,0,0,1,1.878,14.863,12.187,12.187,0,0,1-2.252,3.693l-.007.008A.656.656,0,0,1,717.525,443.227Zm.009-.664h0Z" transform="translate(-685.784 -414.266)" fill="#c7c7c7" stroke="#c7c7c8" stroke-width="0.5"/>
        </g>
      </g>
    </g>
    <g id="Group_858" data-name="Group 858" transform="translate(9.662 9.603)">
      <g id="Group_857" data-name="Group 857">
        <g id="Group_856" data-name="Group 856">
          <path id="Path_491" data-name="Path 491" d="M706.565,444.7a9.718,9.718,0,1,1,9.718-9.719A9.73,9.73,0,0,1,706.565,444.7Zm0-18.126a8.408,8.408,0,1,0,8.408,8.408A8.416,8.416,0,0,0,706.565,426.571Z" transform="translate(-696.847 -425.261)" fill="#c7c7c7" stroke="#c7c7c8" stroke-width="0.5"/>
        </g>
      </g>
    </g>
  </g>
</svg>
