<svg xmlns="http://www.w3.org/2000/svg" width="30.172" height="48.095" viewBox="0 0 30.172 48.095">
  <g id="mo3aq" transform="translate(0.261 0.25)">
    <g id="Group_860" data-name="Group 860" transform="translate(8.898)">
      <path id="Path_492" data-name="Path 492" d="M555.118,290.661a4.758,4.758,0,1,1,4.758-4.757A4.763,4.763,0,0,1,555.118,290.661Zm0-8a3.24,3.24,0,1,0,3.24,3.24A3.244,3.244,0,0,0,555.118,282.663Z" transform="translate(-550.361 -281.145)" fill="#c7c7c7" stroke="#c7c7c8" stroke-width="0.5"/>
    </g>
    <g id="Group_861" data-name="Group 861" transform="translate(0 10.606)">
      <path id="Path_493" data-name="Path 493" d="M543.436,330.652a3.618,3.618,0,0,1-3.241-5.236l4.547-9.095-2.821-5.642a5.021,5.021,0,0,1-.243-3.9l3.679-10.421h0a3.5,3.5,0,0,1,1.2-1.641l.4-.3a3.507,3.507,0,0,1,4.67.408l7.365,9.31a2.482,2.482,0,0,1-.008,3.1l-.821,1.025a2.493,2.493,0,0,1-3.893,0l-3.884-4.854-1.7,4.527,3.664,8.063a.758.758,0,0,1,0,.638L546.7,328.58A3.6,3.6,0,0,1,543.436,330.652Zm5.644-35.416a2.021,2.021,0,0,0-1.214.4l-.4.3a1.99,1.99,0,0,0-.683.932h0l-3.679,10.421a3.491,3.491,0,0,0,.169,2.711l2.991,5.982a.763.763,0,0,1,0,.679l-4.717,9.434a2.1,2.1,0,1,0,3.771,1.836l5.5-11.616-3.648-8.028a.757.757,0,0,1-.02-.58l2.277-6.072a.759.759,0,0,1,1.3-.207l4.718,5.9a1.007,1.007,0,0,0,1.523,0l.82-1.026a.97.97,0,0,0,0-1.214l-7.323-9.262A1.919,1.919,0,0,0,549.08,295.236Zm-3.008,1.38h0Z" transform="translate(-539.81 -293.721)" fill="#c7c7c7" stroke="#c7c7c8" stroke-width="0.5"/>
    </g>
    <g id="Group_862" data-name="Group 862" transform="translate(16.154 26.576)">
      <path id="Path_494" data-name="Path 494" d="M572.105,328.85a.681.681,0,1,0,.482.2A.684.684,0,0,0,572.105,328.85Z" transform="translate(-560.916 -315.194)" fill="#c7c7c7" stroke="#c7c7c8" stroke-width="0.5"/>
      <path id="Path_495" data-name="Path 495" d="M571.8,332.083a2.318,2.318,0,1,0,2.318,2.317A2.32,2.32,0,0,0,571.8,332.083Zm0,3.272a.954.954,0,1,1,.955-.955A.956.956,0,0,1,571.8,335.355Z" transform="translate(-560.612 -315.7)" fill="#c7c7c7" stroke="#c7c7c8" stroke-width="0.5"/>
      <path id="Path_496" data-name="Path 496" d="M568.461,312.657h-5.419c-.547,0-1.093.015-1.638.013a2.583,2.583,0,0,0-1.468.3A1.947,1.947,0,0,0,559.2,314a10.548,10.548,0,0,0-.207,3.35v15.623a.681.681,0,0,0,1.363,0V319.087h9.114v5.182a.681.681,0,1,0,1.363,0v-9.236A2.377,2.377,0,0,0,568.461,312.657Zm1.011,5.066h-9.114v-2.691a1.012,1.012,0,0,1,1.011-1.011h7.092a1.013,1.013,0,0,1,1.011,1.011Z" transform="translate(-558.964 -312.657)" fill="#c7c7c7" stroke="#c7c7c8" stroke-width="0.5"/>
    </g>
  </g>
</svg>
